<?xml version="1.0" encoding="UTF-8"?>
<svg xmlns="http://www.w3.org/2000/svg" xmlns:xlink="http://www.w3.org/1999/xlink" width="538.981pt" height="425.595pt" viewBox="0 0 538.981 425.595">
<defs>
<clipPath id="clip-0">
<path clip-rule="nonzero" d="M 481 340 L 538.980469 340 L 538.980469 398 L 481 398 Z M 481 340 "/>
</clipPath>
<clipPath id="clip-1">
<path clip-rule="nonzero" d="M 481 226 L 538.980469 226 L 538.980469 284 L 481 284 Z M 481 226 "/>
</clipPath>
<clipPath id="clip-2">
<path clip-rule="nonzero" d="M 481 113 L 538.980469 113 L 538.980469 171 L 481 171 Z M 481 113 "/>
</clipPath>
<clipPath id="clip-3">
<path clip-rule="nonzero" d="M 481 0 L 538.980469 0 L 538.980469 58 L 481 58 Z M 481 0 "/>
</clipPath>
</defs>
<path fill="none" stroke-width="0.3985" stroke-linecap="butt" stroke-linejoin="miter" stroke="rgb(0%, 0%, 100%)" stroke-opacity="1" stroke-miterlimit="10" d="M 0.0009375 -0.001 L 28.348594 9.682594 " transform="matrix(1, 0, 0, -1, 113.585, 198.624)"/>
<path fill="none" stroke-width="0.3985" stroke-linecap="butt" stroke-linejoin="miter" stroke="rgb(0%, 0%, 100%)" stroke-opacity="1" stroke-miterlimit="10" d="M 28.348594 9.682594 L 56.692344 19.370094 " transform="matrix(1, 0, 0, -1, 113.585, 198.624)"/>
<path fill="none" stroke-width="0.3985" stroke-linecap="butt" stroke-linejoin="miter" stroke="rgb(0%, 0%, 100%)" stroke-opacity="1" stroke-miterlimit="10" d="M 56.692344 19.370094 L 82.973594 28.346656 " transform="matrix(1, 0, 0, -1, 113.585, 198.624)"/>
<path fill="none" stroke-width="0.3985" stroke-linecap="butt" stroke-linejoin="miter" stroke="rgb(0%, 0%, 100%)" stroke-opacity="1" stroke-miterlimit="10" d="M 82.973594 28.346656 L 85.04 27.639625 " transform="matrix(1, 0, 0, -1, 113.585, 198.624)"/>
<path fill="none" stroke-width="0.3985" stroke-linecap="butt" stroke-linejoin="miter" stroke="rgb(0%, 0%, 100%)" stroke-opacity="1" stroke-miterlimit="10" d="M 85.04 27.639625 L 113.387656 17.956031 " transform="matrix(1, 0, 0, -1, 113.585, 198.624)"/>
<path fill="none" stroke-width="0.3985" stroke-linecap="butt" stroke-linejoin="miter" stroke="rgb(0%, 0%, 100%)" stroke-opacity="1" stroke-miterlimit="10" d="M 113.387656 17.956031 L 141.735313 8.272437 " transform="matrix(1, 0, 0, -1, 113.585, 198.624)"/>
<path fill="none" stroke-width="0.3985" stroke-linecap="butt" stroke-linejoin="miter" stroke="rgb(0%, 0%, 100%)" stroke-opacity="1" stroke-miterlimit="10" d="M 141.735313 8.272437 L 165.94625 -0.001 " transform="matrix(1, 0, 0, -1, 113.585, 198.624)"/>
<path fill="none" stroke-width="0.3985" stroke-linecap="butt" stroke-linejoin="miter" stroke="rgb(0%, 0%, 100%)" stroke-opacity="1" stroke-miterlimit="10" d="M 165.94625 -0.001 L 170.079063 -1.411156 " transform="matrix(1, 0, 0, -1, 113.585, 198.624)"/>
<path fill="none" stroke-width="0.3985" stroke-linecap="butt" stroke-linejoin="miter" stroke="rgb(0%, 0%, 100%)" stroke-opacity="1" stroke-miterlimit="10" d="M 170.079063 -1.411156 L 198.426719 -11.098656 " transform="matrix(1, 0, 0, -1, 113.585, 198.624)"/>
<path fill="none" stroke-width="0.3985" stroke-linecap="butt" stroke-linejoin="miter" stroke="rgb(0%, 0%, 100%)" stroke-opacity="1" stroke-miterlimit="10" d="M 198.426719 -11.098656 L 226.774375 -20.78225 " transform="matrix(1, 0, 0, -1, 113.585, 198.624)"/>
<path fill="none" stroke-width="0.3985" stroke-linecap="butt" stroke-linejoin="miter" stroke="rgb(0%, 0%, 100%)" stroke-opacity="1" stroke-miterlimit="10" d="M 226.774375 -20.78225 L 248.918906 -28.348656 " transform="matrix(1, 0, 0, -1, 113.585, 198.624)"/>
<path fill="none" stroke-width="0.3985" stroke-linecap="butt" stroke-linejoin="miter" stroke="rgb(0%, 0%, 100%)" stroke-opacity="1" stroke-miterlimit="10" d="M 248.918906 -28.348656 L 255.122031 -30.465844 " transform="matrix(1, 0, 0, -1, 113.585, 198.624)"/>
<path fill="none" stroke-width="0.3985" stroke-linecap="butt" stroke-linejoin="miter" stroke="rgb(0%, 0%, 100%)" stroke-opacity="1" stroke-miterlimit="10" d="M 255.122031 -30.465844 L 226.774375 -40.149438 " transform="matrix(1, 0, 0, -1, 113.585, 198.624)"/>
<path fill="none" stroke-width="0.3985" stroke-linecap="butt" stroke-linejoin="miter" stroke="rgb(0%, 0%, 100%)" stroke-opacity="1" stroke-miterlimit="10" d="M 226.774375 -40.149438 L 198.426719 -49.833031 " transform="matrix(1, 0, 0, -1, 113.585, 198.624)"/>
<path fill="none" stroke-width="0.3985" stroke-linecap="butt" stroke-linejoin="miter" stroke="rgb(0%, 0%, 100%)" stroke-opacity="1" stroke-miterlimit="10" d="M 198.426719 -49.833031 L 218.504844 -56.692406 " transform="matrix(1, 0, 0, -1, 113.585, 198.624)"/>
<path fill="none" stroke-width="0.3985" stroke-linecap="butt" stroke-linejoin="miter" stroke="rgb(0%, 0%, 100%)" stroke-opacity="1" stroke-miterlimit="10" d="M 218.504844 -56.692406 L 226.774375 -59.520531 " transform="matrix(1, 0, 0, -1, 113.585, 198.624)"/>
<path fill="none" stroke-width="0.3985" stroke-linecap="butt" stroke-linejoin="miter" stroke="rgb(0%, 0%, 100%)" stroke-opacity="1" stroke-miterlimit="10" d="M 226.774375 -59.520531 L 255.122031 -69.204125 " transform="matrix(1, 0, 0, -1, 113.585, 198.624)"/>
<path fill="none" stroke-width="0.3985" stroke-linecap="butt" stroke-linejoin="miter" stroke="rgb(0%, 0%, 100%)" stroke-opacity="1" stroke-miterlimit="10" d="M 255.122031 -69.204125 L 226.774375 -78.887719 " transform="matrix(1, 0, 0, -1, 113.585, 198.624)"/>
<path fill="none" stroke-width="0.3985" stroke-linecap="butt" stroke-linejoin="miter" stroke="rgb(0%, 0%, 100%)" stroke-opacity="1" stroke-miterlimit="10" d="M 226.774375 -78.887719 L 208.766563 -85.040063 " transform="matrix(1, 0, 0, -1, 113.585, 198.624)"/>
<path fill="none" stroke-width="0.3985" stroke-linecap="butt" stroke-linejoin="miter" stroke="rgb(0%, 0%, 100%)" stroke-opacity="1" stroke-miterlimit="10" d="M 208.766563 -85.040063 L 198.426719 -88.571313 " transform="matrix(1, 0, 0, -1, 113.585, 198.624)"/>
<path fill="none" stroke-width="0.3985" stroke-linecap="butt" stroke-linejoin="miter" stroke="rgb(0%, 0%, 100%)" stroke-opacity="1" stroke-miterlimit="10" d="M 198.426719 -88.571313 L 170.079063 -98.258813 " transform="matrix(1, 0, 0, -1, 113.585, 198.624)"/>
<path fill="none" stroke-width="0.3985" stroke-linecap="butt" stroke-linejoin="miter" stroke="rgb(0%, 0%, 100%)" stroke-opacity="1" stroke-miterlimit="10" d="M 170.079063 -98.258813 L 141.735313 -107.942406 " transform="matrix(1, 0, 0, -1, 113.585, 198.624)"/>
<path fill="none" stroke-width="0.3985" stroke-linecap="butt" stroke-linejoin="miter" stroke="rgb(0%, 0%, 100%)" stroke-opacity="1" stroke-miterlimit="10" d="M 141.735313 -107.942406 L 125.793906 -113.387719 " transform="matrix(1, 0, 0, -1, 113.585, 198.624)"/>
<path fill="none" stroke-width="0.3985" stroke-linecap="butt" stroke-linejoin="miter" stroke="rgb(0%, 0%, 100%)" stroke-opacity="1" stroke-miterlimit="10" d="M 125.793906 -113.387719 L 113.387656 -117.626 " transform="matrix(1, 0, 0, -1, 113.585, 198.624)"/>
<path fill="none" stroke-width="0.3985" stroke-linecap="butt" stroke-linejoin="miter" stroke="rgb(0%, 0%, 100%)" stroke-opacity="1" stroke-miterlimit="10" d="M 113.387656 -117.626 L 85.04 -127.309594 " transform="matrix(1, 0, 0, -1, 113.585, 198.624)"/>
<path fill="none" stroke-width="0.3985" stroke-linecap="butt" stroke-linejoin="miter" stroke="rgb(0%, 0%, 100%)" stroke-opacity="1" stroke-miterlimit="10" d="M 85.04 -127.309594 L 56.692344 -136.993188 " transform="matrix(1, 0, 0, -1, 113.585, 198.624)"/>
<path fill="none" stroke-width="0.3985" stroke-linecap="butt" stroke-linejoin="miter" stroke="rgb(0%, 0%, 100%)" stroke-opacity="1" stroke-miterlimit="10" d="M 56.692344 -136.993188 L 42.82125 -141.735375 " transform="matrix(1, 0, 0, -1, 113.585, 198.624)"/>
<path fill="none" stroke-width="0.3985" stroke-linecap="butt" stroke-linejoin="miter" stroke="rgb(0%, 0%, 100%)" stroke-opacity="1" stroke-miterlimit="10" d="M 42.82125 -141.735375 L 28.348594 -136.790063 " transform="matrix(1, 0, 0, -1, 113.585, 198.624)"/>
<path fill="none" stroke-width="0.3985" stroke-linecap="butt" stroke-linejoin="miter" stroke="rgb(0%, 0%, 100%)" stroke-opacity="1" stroke-miterlimit="10" d="M 28.348594 -136.790063 L 0.0009375 -127.102563 " transform="matrix(1, 0, 0, -1, 113.585, 198.624)"/>
<path fill="none" stroke-width="0.3985" stroke-linecap="butt" stroke-linejoin="miter" stroke="rgb(0%, 0%, 100%)" stroke-opacity="1" stroke-miterlimit="10" d="M 0.0009375 -127.102563 L -17.639687 -121.079125 " transform="matrix(1, 0, 0, -1, 113.585, 198.624)"/>
<path fill-rule="nonzero" fill="rgb(0%, 0%, 100%)" fill-opacity="1" stroke-width="0.3985" stroke-linecap="butt" stroke-linejoin="miter" stroke="rgb(0%, 0%, 100%)" stroke-opacity="1" stroke-miterlimit="10" d="M 16.442521 -0.0000673788 L 0.64529 5.930565 L 5.792649 -0.00152346 L 0.643406 -5.929967 Z M 16.442521 -0.0000673788 " transform="matrix(-0.94627, -0.32327, -0.32327, 0.94627, 101.33248, 321.542)"/>
<path fill="none" stroke-width="0.3985" stroke-linecap="butt" stroke-linejoin="miter" stroke="rgb(0%, 0%, 0%)" stroke-opacity="1" stroke-dasharray="0.3985 1.99255" stroke-miterlimit="10" d="M 0.0009375 -0.001 L 0.0009375 113.385719 L 113.387656 113.385719 L 113.387656 -0.001 Z M 0.0009375 -0.001 " transform="matrix(1, 0, 0, -1, 113.585, 198.624)"/>
<path fill-rule="nonzero" fill="rgb(0%, 0%, 100%)" fill-opacity="1" d="M 116.574219 198.625 C 116.574219 196.972656 115.234375 195.636719 113.585938 195.636719 C 111.933594 195.636719 110.597656 196.972656 110.597656 198.625 C 110.597656 200.273438 111.933594 201.613281 113.585938 201.613281 C 115.234375 201.613281 116.574219 200.273438 116.574219 198.625 Z M 116.574219 198.625 "/>
<path fill="none" stroke-width="0.3985" stroke-linecap="butt" stroke-linejoin="miter" stroke="rgb(100%, 0%, 0%)" stroke-opacity="1" stroke-miterlimit="10" d="M -85.042031 -198.426781 L -85.042031 -141.735375 L -28.346719 -141.735375 L -28.346719 -198.426781 Z M -85.042031 -198.426781 " transform="matrix(1, 0, 0, -1, 113.585, 198.624)"/>
<path fill="none" stroke-width="0.3985" stroke-linecap="butt" stroke-linejoin="miter" stroke="rgb(100%, 0%, 0%)" stroke-opacity="1" stroke-miterlimit="10" d="M -85.042031 -85.040063 L -85.042031 -28.348656 L -28.346719 -28.348656 L -28.346719 -85.040063 Z M -85.042031 -85.040063 " transform="matrix(1, 0, 0, -1, 113.585, 198.624)"/>
<path fill="none" stroke-width="0.3985" stroke-linecap="butt" stroke-linejoin="miter" stroke="rgb(100%, 0%, 0%)" stroke-opacity="1" stroke-miterlimit="10" d="M -85.042031 28.346656 L -85.042031 85.041969 L -28.346719 85.041969 L -28.346719 28.346656 Z M -85.042031 28.346656 " transform="matrix(1, 0, 0, -1, 113.585, 198.624)"/>
<path fill="none" stroke-width="0.3985" stroke-linecap="butt" stroke-linejoin="miter" stroke="rgb(100%, 0%, 0%)" stroke-opacity="1" stroke-miterlimit="10" d="M -85.042031 141.733375 L -85.042031 198.428687 L -28.346719 198.428687 L -28.346719 141.733375 Z M -85.042031 141.733375 " transform="matrix(1, 0, 0, -1, 113.585, 198.624)"/>
<path fill="none" stroke-width="0.3985" stroke-linecap="butt" stroke-linejoin="miter" stroke="rgb(100%, 0%, 0%)" stroke-opacity="1" stroke-miterlimit="10" d="M 28.348594 -198.426781 L 28.348594 -141.735375 L 85.04 -141.735375 L 85.04 -198.426781 Z M 28.348594 -198.426781 " transform="matrix(1, 0, 0, -1, 113.585, 198.624)"/>
<path fill="none" stroke-width="0.3985" stroke-linecap="butt" stroke-linejoin="miter" stroke="rgb(100%, 0%, 0%)" stroke-opacity="1" stroke-miterlimit="10" d="M 28.348594 -85.040063 L 28.348594 -28.348656 L 85.04 -28.348656 L 85.04 -85.040063 Z M 28.348594 -85.040063 " transform="matrix(1, 0, 0, -1, 113.585, 198.624)"/>
<path fill="none" stroke-width="0.3985" stroke-linecap="butt" stroke-linejoin="miter" stroke="rgb(100%, 0%, 0%)" stroke-opacity="1" stroke-miterlimit="10" d="M 28.348594 28.346656 L 28.348594 85.041969 L 85.04 85.041969 L 85.04 28.346656 Z M 28.348594 28.346656 " transform="matrix(1, 0, 0, -1, 113.585, 198.624)"/>
<path fill="none" stroke-width="0.3985" stroke-linecap="butt" stroke-linejoin="miter" stroke="rgb(100%, 0%, 0%)" stroke-opacity="1" stroke-miterlimit="10" d="M 28.348594 141.733375 L 28.348594 198.428687 L 85.04 198.428687 L 85.04 141.733375 Z M 28.348594 141.733375 " transform="matrix(1, 0, 0, -1, 113.585, 198.624)"/>
<path fill="none" stroke-width="0.3985" stroke-linecap="butt" stroke-linejoin="miter" stroke="rgb(100%, 0%, 0%)" stroke-opacity="1" stroke-miterlimit="10" d="M 141.735313 -198.426781 L 141.735313 -141.735375 L 198.426719 -141.735375 L 198.426719 -198.426781 Z M 141.735313 -198.426781 " transform="matrix(1, 0, 0, -1, 113.585, 198.624)"/>
<path fill="none" stroke-width="0.3985" stroke-linecap="butt" stroke-linejoin="miter" stroke="rgb(100%, 0%, 0%)" stroke-opacity="1" stroke-miterlimit="10" d="M 141.735313 -85.040063 L 141.735313 -28.348656 L 198.426719 -28.348656 L 198.426719 -85.040063 Z M 141.735313 -85.040063 " transform="matrix(1, 0, 0, -1, 113.585, 198.624)"/>
<path fill="none" stroke-width="0.3985" stroke-linecap="butt" stroke-linejoin="miter" stroke="rgb(100%, 0%, 0%)" stroke-opacity="1" stroke-miterlimit="10" d="M 141.735313 28.346656 L 141.735313 85.041969 L 198.426719 85.041969 L 198.426719 28.346656 Z M 141.735313 28.346656 " transform="matrix(1, 0, 0, -1, 113.585, 198.624)"/>
<path fill="none" stroke-width="0.3985" stroke-linecap="butt" stroke-linejoin="miter" stroke="rgb(100%, 0%, 0%)" stroke-opacity="1" stroke-miterlimit="10" d="M 141.735313 141.733375 L 141.735313 198.428687 L 198.426719 198.428687 L 198.426719 141.733375 Z M 141.735313 141.733375 " transform="matrix(1, 0, 0, -1, 113.585, 198.624)"/>
<path fill="none" stroke-width="0.3985" stroke-linecap="butt" stroke-linejoin="miter" stroke="rgb(100%, 0%, 0%)" stroke-opacity="1" stroke-miterlimit="10" d="M 255.122031 -198.426781 L 255.122031 -141.735375 L 311.813438 -141.735375 L 311.813438 -198.426781 Z M 255.122031 -198.426781 " transform="matrix(1, 0, 0, -1, 113.585, 198.624)"/>
<path fill="none" stroke-width="0.3985" stroke-linecap="butt" stroke-linejoin="miter" stroke="rgb(100%, 0%, 0%)" stroke-opacity="1" stroke-miterlimit="10" d="M 255.122031 -85.040063 L 255.122031 -28.348656 L 311.813438 -28.348656 L 311.813438 -85.040063 Z M 255.122031 -85.040063 " transform="matrix(1, 0, 0, -1, 113.585, 198.624)"/>
<path fill="none" stroke-width="0.3985" stroke-linecap="butt" stroke-linejoin="miter" stroke="rgb(100%, 0%, 0%)" stroke-opacity="1" stroke-miterlimit="10" d="M 255.122031 28.346656 L 255.122031 85.041969 L 311.813438 85.041969 L 311.813438 28.346656 Z M 255.122031 28.346656 " transform="matrix(1, 0, 0, -1, 113.585, 198.624)"/>
<path fill="none" stroke-width="0.3985" stroke-linecap="butt" stroke-linejoin="miter" stroke="rgb(100%, 0%, 0%)" stroke-opacity="1" stroke-miterlimit="10" d="M 255.122031 141.733375 L 255.122031 198.428687 L 311.813438 198.428687 L 311.813438 141.733375 Z M 255.122031 141.733375 " transform="matrix(1, 0, 0, -1, 113.585, 198.624)"/>
<g clip-path="url(#clip-0)">
<path fill="none" stroke-width="0.3985" stroke-linecap="butt" stroke-linejoin="miter" stroke="rgb(100%, 0%, 0%)" stroke-opacity="1" stroke-miterlimit="10" d="M 368.50875 -198.426781 L 368.50875 -141.735375 L 425.204063 -141.735375 L 425.204063 -198.426781 Z M 368.50875 -198.426781 " transform="matrix(1, 0, 0, -1, 113.585, 198.624)"/>
</g>
<g clip-path="url(#clip-1)">
<path fill="none" stroke-width="0.3985" stroke-linecap="butt" stroke-linejoin="miter" stroke="rgb(100%, 0%, 0%)" stroke-opacity="1" stroke-miterlimit="10" d="M 368.50875 -85.040063 L 368.50875 -28.348656 L 425.204063 -28.348656 L 425.204063 -85.040063 Z M 368.50875 -85.040063 " transform="matrix(1, 0, 0, -1, 113.585, 198.624)"/>
</g>
<g clip-path="url(#clip-2)">
<path fill="none" stroke-width="0.3985" stroke-linecap="butt" stroke-linejoin="miter" stroke="rgb(100%, 0%, 0%)" stroke-opacity="1" stroke-miterlimit="10" d="M 368.50875 28.346656 L 368.50875 85.041969 L 425.204063 85.041969 L 425.204063 28.346656 Z M 368.50875 28.346656 " transform="matrix(1, 0, 0, -1, 113.585, 198.624)"/>
</g>
<g clip-path="url(#clip-3)">
<path fill="none" stroke-width="0.3985" stroke-linecap="butt" stroke-linejoin="miter" stroke="rgb(100%, 0%, 0%)" stroke-opacity="1" stroke-miterlimit="10" d="M 368.50875 141.733375 L 368.50875 198.428687 L 425.204063 198.428687 L 425.204063 141.733375 Z M 368.50875 141.733375 " transform="matrix(1, 0, 0, -1, 113.585, 198.624)"/>
</g>
</svg>
