<?xml version="1.0" encoding="UTF-8"?>
<svg xmlns="http://www.w3.org/2000/svg" xmlns:xlink="http://www.w3.org/1999/xlink" width="144.245pt" height="122.453pt" viewBox="0 0 144.245 122.453">
<defs>
<g>
<g id="glyph-0-0">
<path d="M 4.421875 -2.5 C 4.421875 -3.5625 3.53125 -4.421875 2.5 -4.421875 C 1.421875 -4.421875 0.546875 -3.53125 0.546875 -2.5 C 0.546875 -1.4375 1.421875 -0.5625 2.5 -0.5625 C 3.53125 -0.5625 4.421875 -1.421875 4.421875 -2.5 Z M 4.421875 -2.5 "/>
</g>
<g id="glyph-1-0">
<path d="M 4.609375 -3.375 C 4.515625 -4 4.109375 -4.5625 3.328125 -4.5625 C 2.71875 -4.5625 2.078125 -4.390625 1.296875 -3.625 C 0.46875 -2.796875 0.40625 -1.859375 0.40625 -1.5625 C 0.40625 -0.9375 0.84375 0.21875 2.234375 0.21875 C 4.609375 0.21875 5.640625 -3.125 5.640625 -4.5625 C 5.640625 -6.140625 4.71875 -7.140625 3.484375 -7.140625 C 2.046875 -7.140625 1.578125 -5.84375 1.578125 -5.5625 C 1.578125 -5.421875 1.671875 -5.21875 1.96875 -5.21875 C 2.296875 -5.21875 2.5 -5.515625 2.5 -5.734375 C 2.5 -6.09375 2.1875 -6.09375 2.03125 -6.09375 C 2.46875 -6.828125 3.1875 -6.890625 3.46875 -6.890625 C 4.203125 -6.890625 4.890625 -6.375 4.890625 -5.078125 C 4.890625 -4.6875 4.828125 -4.1875 4.625 -3.375 Z M 2.265625 -0.0625 C 1.171875 -0.0625 1.171875 -1.09375 1.171875 -1.1875 C 1.171875 -1.453125 1.421875 -2.84375 1.828125 -3.453125 C 2.21875 -4.015625 2.71875 -4.34375 3.328125 -4.34375 C 4.421875 -4.34375 4.4375 -3.21875 4.4375 -3.015625 C 4.4375 -2.296875 3.796875 -0.0625 2.265625 -0.0625 Z M 2.265625 -0.0625 "/>
</g>
<g id="glyph-2-0">
<path d="M 2.328125 -4.4375 C 2.328125 -4.625 2.328125 -4.625 2.125 -4.625 C 1.671875 -4.1875 1.046875 -4.1875 0.765625 -4.1875 L 0.765625 -3.9375 C 0.921875 -3.9375 1.390625 -3.9375 1.765625 -4.125 L 1.765625 -0.578125 C 1.765625 -0.34375 1.765625 -0.25 1.078125 -0.25 L 0.8125 -0.25 L 0.8125 0 C 0.9375 0 1.796875 -0.03125 2.046875 -0.03125 C 2.265625 -0.03125 3.140625 0 3.296875 0 L 3.296875 -0.25 L 3.03125 -0.25 C 2.328125 -0.25 2.328125 -0.34375 2.328125 -0.578125 Z M 2.328125 -4.4375 "/>
</g>
<g id="glyph-2-1">
<path d="M 3.515625 -1.265625 L 3.28125 -1.265625 C 3.265625 -1.109375 3.1875 -0.703125 3.09375 -0.640625 C 3.046875 -0.59375 2.515625 -0.59375 2.40625 -0.59375 L 1.125 -0.59375 C 1.859375 -1.234375 2.109375 -1.4375 2.515625 -1.765625 C 3.03125 -2.171875 3.515625 -2.609375 3.515625 -3.265625 C 3.515625 -4.109375 2.78125 -4.625 1.890625 -4.625 C 1.03125 -4.625 0.4375 -4.015625 0.4375 -3.375 C 0.4375 -3.03125 0.734375 -2.984375 0.8125 -2.984375 C 0.96875 -2.984375 1.171875 -3.109375 1.171875 -3.359375 C 1.171875 -3.484375 1.125 -3.734375 0.765625 -3.734375 C 0.984375 -4.21875 1.453125 -4.375 1.78125 -4.375 C 2.484375 -4.375 2.84375 -3.828125 2.84375 -3.265625 C 2.84375 -2.65625 2.40625 -2.1875 2.1875 -1.9375 L 0.515625 -0.265625 C 0.4375 -0.203125 0.4375 -0.1875 0.4375 0 L 3.3125 0 Z M 3.515625 -1.265625 "/>
</g>
<g id="glyph-2-2">
<path d="M 1.90625 -2.328125 C 2.453125 -2.328125 2.84375 -1.953125 2.84375 -1.203125 C 2.84375 -0.34375 2.328125 -0.078125 1.9375 -0.078125 C 1.65625 -0.078125 1.03125 -0.15625 0.75 -0.578125 C 1.078125 -0.578125 1.15625 -0.8125 1.15625 -0.96875 C 1.15625 -1.1875 0.984375 -1.34375 0.765625 -1.34375 C 0.578125 -1.34375 0.375 -1.21875 0.375 -0.9375 C 0.375 -0.28125 1.09375 0.140625 1.9375 0.140625 C 2.90625 0.140625 3.578125 -0.515625 3.578125 -1.203125 C 3.578125 -1.75 3.140625 -2.296875 2.375 -2.453125 C 3.09375 -2.71875 3.359375 -3.234375 3.359375 -3.671875 C 3.359375 -4.21875 2.734375 -4.625 1.953125 -4.625 C 1.1875 -4.625 0.59375 -4.25 0.59375 -3.6875 C 0.59375 -3.453125 0.75 -3.328125 0.953125 -3.328125 C 1.171875 -3.328125 1.3125 -3.484375 1.3125 -3.671875 C 1.3125 -3.875 1.171875 -4.03125 0.953125 -4.046875 C 1.203125 -4.34375 1.671875 -4.421875 1.9375 -4.421875 C 2.25 -4.421875 2.6875 -4.265625 2.6875 -3.671875 C 2.6875 -3.375 2.59375 -3.046875 2.40625 -2.84375 C 2.1875 -2.578125 1.984375 -2.5625 1.640625 -2.53125 C 1.46875 -2.515625 1.453125 -2.515625 1.421875 -2.515625 C 1.40625 -2.515625 1.34375 -2.5 1.34375 -2.421875 C 1.34375 -2.328125 1.40625 -2.328125 1.53125 -2.328125 Z M 1.90625 -2.328125 "/>
</g>
<g id="glyph-2-3">
<path d="M 3.6875 -1.140625 L 3.6875 -1.390625 L 2.90625 -1.390625 L 2.90625 -4.5 C 2.90625 -4.640625 2.90625 -4.703125 2.765625 -4.703125 C 2.671875 -4.703125 2.640625 -4.703125 2.578125 -4.59375 L 0.265625 -1.390625 L 0.265625 -1.140625 L 2.328125 -1.140625 L 2.328125 -0.578125 C 2.328125 -0.328125 2.328125 -0.25 1.75 -0.25 L 1.5625 -0.25 L 1.5625 0 C 1.921875 -0.015625 2.359375 -0.03125 2.609375 -0.03125 C 2.875 -0.03125 3.3125 -0.015625 3.671875 0 L 3.671875 -0.25 L 3.484375 -0.25 C 2.90625 -0.25 2.90625 -0.328125 2.90625 -0.578125 L 2.90625 -1.140625 Z M 2.375 -3.9375 L 2.375 -1.390625 L 0.53125 -1.390625 Z M 2.375 -3.9375 "/>
</g>
<g id="glyph-3-0">
<path d="M 3.703125 -3.25 C 3.796875 -3.34375 3.796875 -3.390625 3.796875 -3.40625 C 3.796875 -3.453125 3.765625 -3.515625 3.734375 -3.546875 L 1.6875 -6.5 L 3.984375 -6.5 C 5.671875 -6.5 6.171875 -6.140625 6.375 -4.5625 L 6.625 -4.5625 L 6.34375 -6.8125 L 0.8125 -6.8125 C 0.578125 -6.8125 0.5625 -6.8125 0.5625 -6.578125 L 3.046875 -2.96875 L 0.671875 -0.265625 C 0.5625 -0.15625 0.5625 -0.140625 0.5625 -0.109375 C 0.5625 0 0.671875 0 0.8125 0 L 6.34375 0 L 6.625 -2.359375 L 6.375 -2.359375 C 6.203125 -0.6875 5.515625 -0.421875 3.953125 -0.421875 L 1.203125 -0.421875 Z M 3.703125 -3.25 "/>
</g>
</g>
<clipPath id="clip-0">
<path clip-rule="nonzero" d="M 99 86 L 137 86 L 137 122.453125 L 99 122.453125 Z M 99 86 "/>
</clipPath>
<clipPath id="clip-1">
<path clip-rule="nonzero" d="M 9 86 L 47 86 L 47 122.453125 L 9 122.453125 Z M 9 86 "/>
</clipPath>
</defs>
<path fill="none" stroke-width="0.3985" stroke-linecap="butt" stroke-linejoin="miter" stroke="rgb(71.136475%, 14.471436%, 11.114502%)" stroke-opacity="1" stroke-dasharray="0.3985 1.99255" stroke-miterlimit="10" d="M 122.900937 220.123938 C 122.744687 210.995031 33.455625 216.123938 33.451719 207.705969 " transform="matrix(1, 0, 0, -1, -4.94, 272.538)"/>
<path fill="none" stroke-width="0.3985" stroke-linecap="butt" stroke-linejoin="miter" stroke="rgb(71.136475%, 14.471436%, 11.114502%)" stroke-opacity="1" stroke-dasharray="0.3985 1.99255" stroke-miterlimit="10" d="M 30.229063 234.19425 C 28.951719 236.788 34.0025 243.928625 40.076719 250.139563 C 46.154844 256.3505 53.2525 261.635656 57.592344 259.776281 " transform="matrix(1, 0, 0, -1, -4.94, 272.538)"/>
<path fill="none" stroke-width="0.3985" stroke-linecap="butt" stroke-linejoin="miter" stroke="rgb(71.136475%, 14.471436%, 11.114502%)" stroke-opacity="1" stroke-dasharray="0.3985 1.99255" stroke-miterlimit="10" d="M 126.78375 235.873938 C 128.94 239.526281 123.053281 245.295813 116.807187 250.952063 C 110.565 256.612219 103.967344 262.159094 98.369687 259.686438 " transform="matrix(1, 0, 0, -1, -4.94, 272.538)"/>
<path fill="none" stroke-width="0.3985" stroke-linecap="butt" stroke-linejoin="miter" stroke="rgb(71.136475%, 14.471436%, 11.114502%)" stroke-opacity="1" stroke-dasharray="0.3985 1.99255" stroke-miterlimit="10" d="M 61.232969 165.38175 C 56.619687 163.88175 47.838437 168.416906 41.006406 174.420813 C 34.178281 180.424719 29.299375 187.889563 31.619688 193.604406 " transform="matrix(1, 0, 0, -1, -4.94, 272.538)"/>
<path fill="none" stroke-width="0.3985" stroke-linecap="butt" stroke-linejoin="miter" stroke="rgb(71.136475%, 14.471436%, 11.114502%)" stroke-opacity="1" stroke-miterlimit="10" d="M 30.229063 234.19425 C 31.389219 231.147375 43.592344 235.526281 51.236875 242.354406 C 58.8775 249.178625 61.967344 258.448156 57.592344 259.776281 " transform="matrix(1, 0, 0, -1, -4.94, 272.538)"/>
<path fill="none" stroke-width="0.3985" stroke-linecap="butt" stroke-linejoin="miter" stroke="rgb(71.136475%, 14.471436%, 11.114502%)" stroke-opacity="1" stroke-miterlimit="10" d="M 31.619688 193.604406 C 32.674375 198.1005 47.022031 196.686438 56.006406 188.866125 C 64.986875 181.041906 68.604062 166.807531 61.232969 165.38175 " transform="matrix(1, 0, 0, -1, -4.94, 272.538)"/>
<path fill="none" stroke-width="0.3985" stroke-linecap="butt" stroke-linejoin="miter" stroke="rgb(71.136475%, 14.471436%, 11.114502%)" stroke-opacity="1" stroke-miterlimit="10" d="M 98.369687 259.686438 C 92.842344 258.116125 96.635312 249.010656 104.416562 241.491125 C 112.197812 233.967688 123.967344 228.030188 126.78375 235.873938 " transform="matrix(1, 0, 0, -1, -4.94, 272.538)"/>
<path fill="none" stroke-width="0.3985" stroke-linecap="butt" stroke-linejoin="miter" stroke="rgb(71.136475%, 14.471436%, 11.114502%)" stroke-opacity="1" stroke-miterlimit="10" d="M 52.979062 244.030188 C 69.732969 241.280188 84.537656 243.459875 97.400937 250.56925 " transform="matrix(1, 0, 0, -1, -4.94, 272.538)"/>
<path fill="none" stroke-width="0.3985" stroke-linecap="butt" stroke-linejoin="miter" stroke="rgb(71.136475%, 14.471436%, 11.114502%)" stroke-opacity="1" stroke-miterlimit="10" d="M 43.092344 236.760656 C 44.635312 228.748938 124.018125 228.248938 122.900937 220.123938 " transform="matrix(1, 0, 0, -1, -4.94, 272.538)"/>
<path fill="none" stroke-width="0.3985" stroke-linecap="butt" stroke-linejoin="miter" stroke="rgb(71.136475%, 14.471436%, 11.114502%)" stroke-opacity="1" stroke-miterlimit="10" d="M 33.451719 207.705969 C 32.873594 199.373938 44.635312 200.854406 45.037656 194.862219 " transform="matrix(1, 0, 0, -1, -4.94, 272.538)"/>
<g fill="rgb(71.136475%, 14.471436%, 11.114502%)" fill-opacity="1">
<use xlink:href="#glyph-0-0" x="45.546" y="30.725"/>
</g>
<g fill="rgb(71.136475%, 14.471436%, 11.114502%)" fill-opacity="1">
<use xlink:href="#glyph-0-0" x="35.66" y="37.996"/>
</g>
<g fill="rgb(71.136475%, 14.471436%, 11.114502%)" fill-opacity="1">
<use xlink:href="#glyph-0-0" x="37.605" y="79.893"/>
</g>
<g fill="rgb(71.136475%, 14.471436%, 11.114502%)" fill-opacity="1">
<use xlink:href="#glyph-0-0" x="89.967" y="24.187"/>
</g>
<path fill="none" stroke-width="0.3985" stroke-linecap="butt" stroke-linejoin="miter" stroke="rgb(0%, 0%, 0%)" stroke-opacity="1" stroke-miterlimit="10" d="M 22.318906 245.487219 C 16.736875 251.065344 27.897031 262.2255 34.404844 266.873938 C 40.912656 271.522375 42.775937 269.663 44.635312 267.803625 C 46.494687 265.94425 48.354062 264.084875 43.705625 257.577063 C 39.053281 251.065344 27.897031 239.909094 22.318906 245.487219 " transform="matrix(1, 0, 0, -1, -4.94, 272.538)"/>
<g clip-path="url(#clip-0)">
<path fill="none" stroke-width="0.3985" stroke-linecap="butt" stroke-linejoin="miter" stroke="rgb(0%, 0%, 0%)" stroke-opacity="1" stroke-miterlimit="10" d="M 111.584531 156.217688 C 117.162656 150.639563 128.322812 161.799719 132.97125 168.307531 C 137.619687 174.815344 135.760312 176.674719 133.900937 178.534094 C 132.041562 180.397375 130.182187 182.25675 123.674375 177.604406 C 117.162656 172.955969 106.006406 161.799719 111.584531 156.217688 " transform="matrix(1, 0, 0, -1, -4.94, 272.538)"/>
</g>
<g clip-path="url(#clip-1)">
<path fill="none" stroke-width="0.3985" stroke-linecap="butt" stroke-linejoin="miter" stroke="rgb(0%, 0%, 0%)" stroke-opacity="1" stroke-miterlimit="10" d="M 44.635312 156.217688 C 39.053281 150.639563 27.897031 161.799719 23.248594 168.307531 C 18.59625 174.815344 20.455625 176.674719 22.318906 178.534094 C 24.178281 180.397375 26.037656 182.25675 32.545469 177.604406 C 39.053281 172.955969 50.213437 161.799719 44.635312 156.217688 " transform="matrix(1, 0, 0, -1, -4.94, 272.538)"/>
</g>
<path fill="none" stroke-width="0.3985" stroke-linecap="butt" stroke-linejoin="miter" stroke="rgb(0%, 0%, 0%)" stroke-opacity="1" stroke-miterlimit="10" d="M 133.900937 245.487219 C 128.322812 239.909094 117.162656 251.065344 112.514219 257.577063 C 107.865781 264.084875 109.725156 265.94425 111.584531 267.803625 C 113.443906 269.663 115.303281 271.522375 121.815 266.873938 C 128.322812 262.2255 139.482969 251.065344 133.900937 245.487219 " transform="matrix(1, 0, 0, -1, -4.94, 272.538)"/>
<path fill="none" stroke-width="0.3985" stroke-linecap="butt" stroke-linejoin="miter" stroke="rgb(0%, 0%, 0%)" stroke-opacity="1" stroke-miterlimit="10" d="M 133.900937 245.487219 C 122.744687 234.327063 122.744687 223.170813 122.744687 212.010656 C 122.744687 200.854406 122.744687 189.69425 133.900937 178.534094 " transform="matrix(1, 0, 0, -1, -4.94, 272.538)"/>
<path fill="none" stroke-width="0.3985" stroke-linecap="butt" stroke-linejoin="miter" stroke="rgb(0%, 0%, 0%)" stroke-opacity="1" stroke-miterlimit="10" d="M 22.318906 178.534094 C 33.475156 189.69425 33.475156 200.854406 33.475156 212.010656 C 33.475156 223.170813 33.475156 234.327063 22.318906 245.487219 " transform="matrix(1, 0, 0, -1, -4.94, 272.538)"/>
<path fill="none" stroke-width="0.3985" stroke-linecap="butt" stroke-linejoin="miter" stroke="rgb(0%, 0%, 0%)" stroke-opacity="1" stroke-miterlimit="10" d="M 44.635312 267.803625 C 52.072812 260.366125 63.232969 256.643469 78.107969 256.643469 " transform="matrix(1, 0, 0, -1, -4.94, 272.538)"/>
<path fill="none" stroke-width="0.3985" stroke-linecap="butt" stroke-linejoin="miter" stroke="rgb(0%, 0%, 0%)" stroke-opacity="1" stroke-miterlimit="10" d="M 111.584531 267.803625 C 104.147031 260.366125 92.986875 256.643469 78.107969 256.643469 " transform="matrix(1, 0, 0, -1, -4.94, 272.538)"/>
<path fill="none" stroke-width="0.3985" stroke-linecap="butt" stroke-linejoin="miter" stroke="rgb(0%, 0%, 0%)" stroke-opacity="1" stroke-miterlimit="10" d="M 111.584531 156.217688 C 104.147031 163.659094 92.986875 167.377844 78.107969 167.377844 " transform="matrix(1, 0, 0, -1, -4.94, 272.538)"/>
<path fill="none" stroke-width="0.3985" stroke-linecap="butt" stroke-linejoin="miter" stroke="rgb(0%, 0%, 0%)" stroke-opacity="1" stroke-miterlimit="10" d="M 44.635312 156.217688 C 52.072812 163.659094 63.232969 167.377844 78.107969 167.377844 " transform="matrix(1, 0, 0, -1, -4.94, 272.538)"/>
<g fill="rgb(0%, 0%, 0%)" fill-opacity="1">
<use xlink:href="#glyph-1-0" x="3.321" y="10.239"/>
</g>
<g fill="rgb(0%, 0%, 0%)" fill-opacity="1">
<use xlink:href="#glyph-2-0" x="8.61" y="11.733"/>
</g>
<g fill="rgb(0%, 0%, 0%)" fill-opacity="1">
<use xlink:href="#glyph-3-0" x="13.079" y="10.239"/>
</g>
<g fill="rgb(0%, 0%, 0%)" fill-opacity="1">
<use xlink:href="#glyph-1-0" x="3.321" y="117.638"/>
</g>
<g fill="rgb(0%, 0%, 0%)" fill-opacity="1">
<use xlink:href="#glyph-2-1" x="8.61" y="119.132"/>
</g>
<g fill="rgb(0%, 0%, 0%)" fill-opacity="1">
<use xlink:href="#glyph-3-0" x="13.079" y="117.638"/>
</g>
<g fill="rgb(0%, 0%, 0%)" fill-opacity="1">
<use xlink:href="#glyph-1-0" x="123.97" y="10.239"/>
</g>
<g fill="rgb(0%, 0%, 0%)" fill-opacity="1">
<use xlink:href="#glyph-2-2" x="129.259" y="11.733"/>
</g>
<g fill="rgb(0%, 0%, 0%)" fill-opacity="1">
<use xlink:href="#glyph-3-0" x="133.729" y="10.239"/>
</g>
<g fill="rgb(0%, 0%, 0%)" fill-opacity="1">
<use xlink:href="#glyph-1-0" x="123.97" y="117.638"/>
</g>
<g fill="rgb(0%, 0%, 0%)" fill-opacity="1">
<use xlink:href="#glyph-2-3" x="129.259" y="119.132"/>
</g>
<g fill="rgb(0%, 0%, 0%)" fill-opacity="1">
<use xlink:href="#glyph-3-0" x="133.729" y="117.638"/>
</g>
</svg>
